{
	"asset":{
		"generator":"Khronos glTF Blender I/O v4.2.70",
		"version":"2.0"
	},
	"scene":0,
	"scenes":[
		{
			"name":"Scene",
			"nodes":[
				1
			]
		}
	],
	"nodes":[
		{
			"mesh":0,
			"name":"Skyscraper1",
			"scale":[
				100,
				100,
				100
			],
			"translation":[
				0,
				4.043483841087436e-06,
				0
			]
		},
		{
			"children":[
				0
			],
			"name":"Subdivision_Surface",
			"scale":[
				0.009999999776482582,
				0.009999999776482582,
				0.009999999776482582
			],
			"translation":[
				-0.2800736427307129,
				0.41908910870552063,
				-0.0523403137922287
			]
		}
	],
	"materials":[
		{
			"doubleSided":true,
			"name":"Black",
			"pbrMetallicRoughness":{
				"baseColorFactor":[
					0,
					0,
					0,
					1
				],
				"metallicFactor":0,
				"roughnessFactor":0.690034806728363
			}
		},
		{
			"doubleSided":true,
			"name":"Windows",
			"pbrMetallicRoughness":{
				"baseColorFactor":[
					0.6069377064704895,
					0.6069377064704895,
					0.6069377064704895,
					1
				],
				"metallicFactor":0,
				"roughnessFactor":0.690034806728363
			}
		},
		{
			"doubleSided":true,
			"name":"Door",
			"pbrMetallicRoughness":{
				"baseColorFactor":[
					0.33245155215263367,
					0.33245155215263367,
					0.33245155215263367,
					1
				],
				"metallicFactor":0,
				"roughnessFactor":0.690034806728363
			}
		}
	],
	"meshes":[
		{
			"name":"Mesh",
			"primitives":[
				{
					"attributes":{
						"POSITION":0,
						"NORMAL":1
					},
					"indices":2,
					"material":0
				},
				{
					"attributes":{
						"POSITION":3,
						"NORMAL":4
					},
					"indices":5,
					"material":1
				},
				{
					"attributes":{
						"POSITION":6,
						"NORMAL":7
					},
					"indices":8,
					"material":2
				}
			]
		}
	],
	"accessors":[
		{
			"bufferView":0,
			"componentType":5126,
			"count":2530,
			"max":[
				1.0276589393615723,
				7.096986770629883,
				1.0922443866729736
			],
			"min":[
				-1.1568299531936646,
				-3.654665470123291,
				-1.0922443866729736
			],
			"type":"VEC3"
		},
		{
			"bufferView":1,
			"componentType":5126,
			"count":2530,
			"type":"VEC3"
		},
		{
			"bufferView":2,
			"componentType":5123,
			"count":12288,
			"type":"SCALAR"
		},
		{
			"bufferView":3,
			"componentType":5126,
			"count":900,
			"max":[
				0.9502926468849182,
				3.6480491161346436,
				1.0148781538009644
			],
			"min":[
				-1.0794637203216553,
				-3.1588988304138184,
				-1.0148781538009644
			],
			"type":"VEC3"
		},
		{
			"bufferView":4,
			"componentType":5126,
			"count":900,
			"type":"VEC3"
		},
		{
			"bufferView":5,
			"componentType":5123,
			"count":3840,
			"type":"SCALAR"
		},
		{
			"bufferView":6,
			"componentType":5126,
			"count":25,
			"max":[
				1.0333683490753174,
				-3.449244499206543,
				0.07344041764736176
			],
			"min":[
				1.0333683490753174,
				-3.64788818359375,
				-0.07344041764736176
			],
			"type":"VEC3"
		},
		{
			"bufferView":7,
			"componentType":5126,
			"count":25,
			"type":"VEC3"
		},
		{
			"bufferView":8,
			"componentType":5123,
			"count":96,
			"type":"SCALAR"
		}
	],
	"bufferViews":[
		{
			"buffer":0,
			"byteLength":30360,
			"byteOffset":0,
			"target":34962
		},
		{
			"buffer":0,
			"byteLength":30360,
			"byteOffset":30360,
			"target":34962
		},
		{
			"buffer":0,
			"byteLength":24576,
			"byteOffset":60720,
			"target":34963
		},
		{
			"buffer":0,
			"byteLength":10800,
			"byteOffset":85296,
			"target":34962
		},
		{
			"buffer":0,
			"byteLength":10800,
			"byteOffset":96096,
			"target":34962
		},
		{
			"buffer":0,
			"byteLength":7680,
			"byteOffset":106896,
			"target":34963
		},
		{
			"buffer":0,
			"byteLength":300,
			"byteOffset":114576,
			"target":34962
		},
		{
			"buffer":0,
			"byteLength":300,
			"byteOffset":114876,
			"target":34962
		},
		{
			"buffer":0,
			"byteLength":192,
			"byteOffset":115176,
			"target":34963
		}
	],
	"buffers":[
		{
			"byteLength":115368,
			"uri":"building.bin"
		}
	]
}
