<svg width="300" height="346" viewBox="0 0 300 346" fill="none" xmlns="http://www.w3.org/2000/svg">
<path d="M106.813 324.899C106.813 317.241 99.2674 310.224 95.1234 304.117C89.1293 295.284 83.1221 285.039 78.2381 275.542C67.1556 253.993 60.5802 231.307 54.2811 208C47.923 184.476 36.4641 162.106 32.0559 137.861C27.0454 110.303 17.6195 73.5875 23.8297 45.6414C25.2861 39.0876 47.9118 39.147 53.5595 39.147C66.3808 39.147 70.6331 49.736 73.1869 61.2279C75.7794 72.8941 81.0919 84.7921 84.7324 96.4417C87.0823 103.962 88.1796 128.192 96.9996 120.254C107.577 110.735 141.518 115.708 140.584 98.8952C139.848 85.6573 127.595 74.6704 127.595 60.5063C127.595 47.9292 124.168 30.6725 132.791 20.8185C141.732 10.6 149.036 0.840146 160.067 11.8707C169.259 21.0628 173.687 33.5624 177.097 45.4971C182.059 62.8664 189.941 82.4669 189.941 101.493" stroke="white" stroke-width="3" stroke-linecap="round"/>
<path d="M140.584 223.589C153.117 212.309 171.812 205.439 182.148 191.839C188.418 183.589 200.749 180.74 206.105 171.634C208.804 167.046 223.575 161.243 228.907 161.243C239.119 161.243 237.056 174.352 240.597 180.726C248.296 194.584 249.689 211.19 249.689 227.486C249.689 247.911 203.717 250.59 195.137 267.751" stroke="white" stroke-width="3" stroke-linecap="round"/>
<path d="M85.6919 202.751C85.6919 177.602 126.932 157.942 140.245 184.567" stroke="white" stroke-width="3" stroke-linecap="round"/>
<path d="M177.019 165.687C177.019 140.538 218.259 120.878 231.571 147.502" stroke="white" stroke-width="3" stroke-linecap="round"/>
<path d="M184.071 240.77C184.99 249.042 207.78 251.103 212.846 246.319C217.636 241.795 217.966 238.75 220.656 233.371C222.521 229.64 224.767 217.382 224.767 221.553C224.767 229.552 231.355 242.62 240.49 242.62C247.514 242.62 251.073 236.616 252.411 230.596C252.998 227.957 250.662 219.496 248.814 218.572" stroke="white" stroke-width="3" stroke-linecap="round"/>
</svg>
