<svg width="35" height="20" viewBox="0 0 35 20" fill="none" xmlns="http://www.w3.org/2000/svg">
<path d="M34.7721 11.2903H27.3525V0H34.7721C34.7721 0.0144748 34.7721 11.3048 34.7721 11.2903Z" fill="white"/>
<path d="M31.0477 19.8153C33.0965 19.8153 34.7574 18.1369 34.7574 16.0664C34.7574 13.9959 33.0965 12.3174 31.0477 12.3174C28.9988 12.3174 27.3379 13.9959 27.3379 16.0664C27.3379 18.1369 28.9988 19.8153 31.0477 19.8153Z" fill="white"/>
<path d="M17.7324 0.0146484H7.64872L0 19.4398H8.4938L9.4678 16.1975H15.9563L16.959 19.4398H25.4241L17.7324 0.0146484ZM12.6619 13.8236C10.1124 13.8236 8.04978 11.7392 8.04978 9.16272C8.04978 6.58621 10.1124 4.50184 12.6619 4.50184C15.2115 4.50184 17.2741 6.58621 17.2741 9.16272C17.2741 11.7392 15.2115 13.8236 12.6619 13.8236Z" fill="white"/>
<path d="M12.6615 6.87598C11.4154 6.87598 10.3984 7.90369 10.3984 9.16299C10.3984 10.4223 11.4154 11.45 12.6615 11.45C13.9077 11.45 14.9246 10.4223 14.9246 9.16299C14.9246 7.90369 13.9077 6.87598 12.6615 6.87598ZM12.6615 9.84331C12.2891 9.84331 11.974 9.53934 11.974 9.14852C11.974 8.7577 12.2748 8.45373 12.6615 8.45373C13.0483 8.45373 13.3491 8.7577 13.3491 9.14852C13.3491 9.53934 13.034 9.84331 12.6615 9.84331Z" fill="white"/>
</svg>
